# xmcd CD database file
#
# Track frame offsets:
#	150
#	27539
#	47480
#	69904
#	87699
#	110234
#	131699
#	153868
#	176689
#	197179
#	220066
#	239726
#	268091
#
# Disc length: 3946 seconds
#
# Revision: 0
# Processed by: cddbd v1.5.2PL0 Copyright (c) Steve Scherf et al.
# Submitted via: CDex 1.51
#
DISCID=c50f680d
DTITLE=Mario Biondi and Duke Orchestra - Live - I Love You More
DYEAR=2011
DGENRE=Jazz
TTITLE0=Never  Die
TTITLE1=No Mercy For Me
TTITLE2=Rio De Janeiro Blues
TTITLE3=On a Clear Day (You Can See Forever)
TTITLE4=Close To You
TTITLE5=I Can't Keep From Cryin' Sometimes
TTITLE6=Rebirth
TTITLE7=I Love You More
TTITLE8=Moonlight In July
TTITLE9=A Handful Of Soul
TTITLE10=Slow Hot Wind
TTITLE11=Just The Way You Are
TTITLE12=This Is What You Are
EXTD=YEAR: 2011
EXTT0=
EXTT1=
EXTT2=
EXTT3=
EXTT4=
EXTT5=
EXTT6=
EXTT7=
EXTT8=
EXTT9=
EXTT10=
EXTT11=
EXTT12=
PLAYORDER=
